<svg width="60" height="60" viewBox="0 0 60 60" fill="none" xmlns="http://www.w3.org/2000/svg">
<path fill-rule="evenodd" clip-rule="evenodd" d="M30.0001 10C24.6958 10 19.6087 12.1071 15.858 15.8579C12.1073 19.6086 10.0001 24.6957 10.0001 30C10.0001 35.3043 12.1073 40.3914 15.858 44.1421C19.6087 47.8929 24.6958 50 30.0001 50C35.3045 50 40.3915 47.8929 44.1423 44.1421C47.893 40.3914 50.0001 35.3043 50.0001 30C50.0001 24.6957 47.893 19.6086 44.1423 15.8579C40.3915 12.1071 35.3045 10 30.0001 10ZM5.00012 30C5.00012 16.1925 16.1926 5 30.0001 5C43.8076 5 55.0001 16.1925 55.0001 30C55.0001 43.8075 43.8076 55 30.0001 55C16.1926 55 5.00012 43.8075 5.00012 30Z" fill="white"/>
<path fill-rule="evenodd" clip-rule="evenodd" d="M29.9998 10C24.8434 9.98966 19.8843 11.9812 16.1673 15.555C15.9303 15.7822 15.6508 15.9605 15.3449 16.0797C15.039 16.1989 14.7125 16.2566 14.3843 16.2497C14.056 16.2427 13.7324 16.1711 13.4318 16.0391C13.1312 15.907 12.8595 15.7171 12.6323 15.48C12.4051 15.243 12.2269 14.9635 12.1077 14.6576C11.9885 14.3517 11.9307 14.0253 11.9377 13.697C11.9447 13.3687 12.0162 13.0451 12.1483 12.7445C12.2803 12.4439 12.4703 12.1722 12.7073 11.945C17.3553 7.47906 23.554 4.98953 29.9998 5.00003C30.6629 5.00003 31.2987 5.26343 31.7676 5.73227C32.2364 6.20111 32.4998 6.83699 32.4998 7.50003C32.4998 8.16307 32.2364 8.79896 31.7676 9.2678C31.2987 9.73664 30.6629 10 29.9998 10Z" fill="#2AE881"/>
</svg>
